<svg id="visual" viewBox="0 0 900 600" width="900" height="600" xmlns="http://www.w3.org/2000/svg" xmlns:xlink="http://www.w3.org/1999/xlink" version="1.1"><rect width="900" height="600" fill="#715DF2"></rect><g><g transform="translate(724 251)"><path d="M20.8 -26.5C25.3 -20.9 26.3 -12.9 27.1 -5.2C28 2.4 28.7 9.7 25.3 13.7C21.9 17.7 14.5 18.5 7.4 21.8C0.3 25 -6.5 30.7 -11.2 29.6C-15.9 28.4 -18.5 20.3 -22.4 13.1C-26.4 5.9 -31.7 -0.3 -31.9 -6.7C-32.1 -13.2 -27.1 -19.8 -21 -25.1C-14.8 -30.4 -7.4 -34.4 0.4 -34.8C8.1 -35.2 16.2 -32.1 20.8 -26.5Z" fill="none" stroke="#6600FF" stroke-width="25"></path></g><g transform="translate(269 431)"><path d="M5.7 -6.7C6.8 -5.9 6.7 -3.5 7.2 -1.2C7.6 1 8.5 3.2 7.7 4.4C7 5.6 4.6 5.7 2.4 6.5C0.2 7.2 -1.7 8.6 -3.5 8.4C-5.3 8.3 -7 6.6 -7.7 4.7C-8.5 2.9 -8.3 0.7 -7.8 -1.3C-7.4 -3.3 -6.7 -5.2 -5.3 -6C-3.9 -6.8 -2 -6.5 0.2 -6.7C2.3 -6.9 4.6 -7.5 5.7 -6.7Z" fill="none" stroke="#6600FF" stroke-width="25"></path></g><g transform="translate(503 400)"><path d="M7.6 -8.6C10.1 -7 12.6 -4.8 13.2 -2.2C13.8 0.4 12.6 3.5 10.7 5.6C8.8 7.7 6.2 8.9 3.6 9.9C1 10.9 -1.8 11.6 -3.7 10.6C-5.6 9.7 -6.7 7.1 -7.8 4.7C-9 2.3 -10.2 0.2 -10.5 -2.5C-10.8 -5.1 -10.2 -8.3 -8.3 -10C-6.4 -11.8 -3.2 -12.2 -0.3 -11.8C2.6 -11.5 5.1 -10.3 7.6 -8.6Z" stroke="#6600FF" fill="none" stroke-width="25"></path></g><g transform="translate(611 60)"><path d="M11.6 -13C16.2 -9.9 22.2 -7.4 24.7 -2.9C27.3 1.7 26.6 8.3 22.9 11.8C19.2 15.2 12.4 15.5 7.1 15.8C1.8 16.1 -2.2 16.5 -7 16.1C-11.7 15.7 -17.3 14.5 -21.2 10.8C-25.1 7.1 -27.3 0.9 -25.8 -4C-24.4 -9 -19.2 -12.9 -14.3 -16C-9.3 -19.1 -4.7 -21.6 -0.6 -20.9C3.4 -20.1 6.9 -16.2 11.6 -13Z" stroke="#6600FF" fill="none" stroke-width="25"></path></g><g transform="translate(239 299)"><path d="M18.7 -20.6C24.1 -17.8 28.2 -11.7 28.4 -5.7C28.6 0.3 24.9 6.3 21 11.3C17.1 16.4 13.1 20.6 7.4 24.5C1.7 28.4 -5.7 32 -10.3 29.7C-15 27.4 -17 19.2 -19.7 12.4C-22.5 5.6 -26 0.2 -25.9 -5.4C-25.9 -10.9 -22.3 -16.7 -17.4 -19.6C-12.5 -22.6 -6.3 -22.7 0.2 -22.9C6.7 -23.2 13.3 -23.5 18.7 -20.6Z" stroke="#6600FF" fill="none" stroke-width="25"></path></g><g transform="translate(873 41)"><path d="M9.7 -13.9C12.3 -9.4 14 -6.1 14.8 -2.4C15.7 1.2 15.8 5.2 14.3 8.8C12.9 12.3 9.8 15.5 5.8 17.9C1.7 20.2 -3.4 21.8 -7.1 20.1C-10.8 18.5 -13.1 13.7 -16.1 9C-19.2 4.4 -22.9 -0.2 -22.8 -4.5C-22.6 -8.9 -18.5 -13 -14.1 -17.2C-9.6 -21.4 -4.8 -25.5 -0.6 -24.8C3.6 -24 7.1 -18.4 9.7 -13.9Z" stroke="#6600FF" fill="none" stroke-width="25"></path></g><g transform="translate(48 346)"><path d="M6.8 -8.4C8.2 -7 8.3 -4.2 8.7 -1.6C9.1 1.1 9.9 3.6 8.9 4.9C7.9 6.2 5.1 6.2 2.7 6.8C0.3 7.4 -1.6 8.6 -3.7 8.6C-5.8 8.5 -8.1 7.2 -9.1 5.3C-10.1 3.4 -9.9 0.9 -9.3 -1.5C-8.8 -4 -7.9 -6.2 -6.3 -7.5C-4.7 -8.9 -2.4 -9.3 0.2 -9.5C2.7 -9.7 5.5 -9.7 6.8 -8.4Z" stroke="#6600FF" fill="none" stroke-width="25"></path></g><g transform="translate(189 65)"><path d="M10.7 -11.6C14.5 -9.5 18.8 -6.8 19.1 -3.6C19.4 -0.4 15.8 3.3 13.2 7.5C10.7 11.7 9.2 16.4 5.8 18.8C2.5 21.2 -2.7 21.4 -6.8 19.5C-10.9 17.6 -13.9 13.7 -16.2 9.5C-18.5 5.3 -20 0.7 -19.1 -3.2C-18.2 -7.1 -14.8 -10.4 -11.3 -12.5C-7.7 -14.6 -3.8 -15.6 -0.2 -15.4C3.4 -15.1 6.8 -13.7 10.7 -11.6Z" stroke="#6600FF" fill="none" stroke-width="25"></path></g><g transform="translate(622 400)"><path d="M4.9 -5.4C6.4 -4.6 7.6 -3.1 8.1 -1.3C8.5 0.5 8.2 2.5 7 3.7C5.9 4.9 4 5.3 2.3 5.6C0.7 5.9 -0.8 6 -2.5 5.8C-4.3 5.7 -6.3 5.3 -7 4.1C-7.7 2.9 -7 0.9 -6.7 -1.3C-6.4 -3.4 -6.6 -5.8 -5.6 -6.6C-4.5 -7.4 -2.3 -6.8 -0.3 -6.5C1.7 -6.1 3.4 -6.1 4.9 -5.4Z" stroke="#6600FF" fill="none" stroke-width="25"></path></g><g transform="translate(20 591)"><path d="M1.9 -2.1C2.6 -1.7 3.4 -1.2 3.6 -0.6C3.8 0.1 3.4 0.9 2.9 1.6C2.4 2.2 1.8 2.8 1 3.1C0.3 3.5 -0.6 3.8 -1.4 3.6C-2.2 3.4 -2.9 2.7 -3.2 2C-3.5 1.2 -3.5 0.3 -3.2 -0.4C-2.9 -1.1 -2.3 -1.6 -1.7 -2C-1.1 -2.4 -0.6 -2.8 0 -2.8C0.6 -2.8 1.2 -2.5 1.9 -2.1Z" stroke="#6600FF" fill="none" stroke-width="25"></path></g><g transform="translate(379 543)"><path d="M4.4 -5.6C5.6 -4.2 6.6 -2.8 6.6 -1.4C6.6 0 5.7 1.4 5 3.2C4.3 5 3.9 7.2 2.8 7.5C1.7 7.8 0 6.3 -1.6 5.3C-3.1 4.4 -4.5 3.9 -5.6 2.9C-6.6 1.8 -7.3 0.2 -7.2 -1.5C-7.2 -3.2 -6.4 -4.9 -5.1 -6.3C-3.7 -7.7 -1.9 -8.7 -0.1 -8.5C1.6 -8.3 3.1 -7 4.4 -5.6Z" stroke="#6600FF" fill="none" stroke-width="25"></path></g><g transform="translate(766 457)"><path d="M1.9 -2.2C2.5 -1.8 3 -1.2 3.3 -0.5C3.6 0.3 3.6 1.2 3.2 1.9C2.9 2.6 2.1 3 1.2 3.3C0.3 3.7 -0.6 3.9 -1.4 3.7C-2.3 3.5 -3.1 2.9 -3.6 2.1C-4 1.3 -4.1 0.3 -3.9 -0.7C-3.7 -1.6 -3.2 -2.4 -2.5 -2.8C-1.8 -3.2 -0.9 -3.1 -0.1 -3C0.7 -2.9 1.4 -2.6 1.9 -2.2Z" stroke="#6600FF" fill="none" stroke-width="25"></path></g><g transform="translate(472 280)"><path d="M2 -2.5C2.5 -2 2.7 -1.2 2.9 -0.5C3 0.3 3.1 1 2.7 1.6C2.4 2.1 1.7 2.5 0.9 2.9C0.2 3.3 -0.7 3.7 -1.5 3.7C-2.4 3.6 -3.3 3 -3.8 2.2C-4.3 1.3 -4.5 0.3 -4.2 -0.7C-4 -1.6 -3.3 -2.3 -2.5 -2.8C-1.7 -3.4 -0.9 -3.6 -0.1 -3.6C0.8 -3.5 1.5 -3.1 2 -2.5Z" stroke="#6600FF" fill="none" stroke-width="25"></path></g><g transform="translate(714 557)"><path d="M12.6 -14.6C15.5 -12.5 16.5 -7.8 17.4 -3C18.3 1.8 19.1 6.6 17.8 11.7C16.5 16.7 13.2 22 8.9 22.9C4.5 23.9 -0.9 20.6 -6.4 18.3C-11.9 16 -17.5 14.7 -20.1 11.2C-22.6 7.7 -22 1.9 -20.2 -2.8C-18.4 -7.5 -15.4 -11.2 -11.9 -13.1C-8.3 -15 -4.2 -15.1 0.3 -15.5C4.8 -15.9 9.6 -16.6 12.6 -14.6Z" stroke="#6600FF" fill="none" stroke-width="25"></path></g><g transform="translate(75 231)"><path d="M12.1 -13.1C16.7 -10.6 22.2 -7.7 23.3 -3.7C24.4 0.2 21.3 5.3 17.6 8.6C13.9 11.9 9.7 13.4 5.3 15.4C0.9 17.4 -3.6 19.9 -7.6 19.2C-11.7 18.5 -15.2 14.7 -17.4 10.3C-19.7 5.9 -20.7 1 -19.6 -3.2C-18.6 -7.5 -15.5 -11.1 -11.9 -13.8C-8.3 -16.5 -4.1 -18.2 -0.2 -18C3.8 -17.8 7.5 -15.6 12.1 -13.1Z" stroke="#6600FF" fill="none" stroke-width="25"></path></g><g transform="translate(587 300)"><path d="M13.4 -16.6C16.8 -13.1 18.7 -8.4 19.7 -3.4C20.6 1.6 20.7 6.8 18.4 10.5C16.1 14.2 11.5 16.5 6.7 17.9C2 19.4 -2.8 20.1 -7.6 19.1C-12.4 18.1 -17.2 15.4 -19.7 11.3C-22.1 7.2 -22.1 1.6 -20.8 -3.3C-19.6 -8.3 -16.9 -12.7 -13.3 -16.2C-9.6 -19.7 -4.8 -22.3 0.1 -22.4C5 -22.5 10 -20.2 13.4 -16.6Z" stroke="#6600FF" fill="none" stroke-width="25"></path></g><g transform="translate(152 442)"><path d="M7.4 -9.6C9.3 -7.1 10.6 -4.6 11.6 -1.7C12.5 1.3 13.3 4.7 12.2 7.4C11.1 10.2 8.2 12.3 4.9 13.6C1.6 14.9 -2.1 15.4 -5.1 14.2C-8.1 13.1 -10.5 10.2 -11.5 7.3C-12.5 4.3 -12.1 1.1 -10.9 -1.3C-9.7 -3.7 -7.7 -5.3 -5.8 -7.7C-3.9 -10.2 -1.9 -13.4 0.4 -13.9C2.7 -14.4 5.4 -12 7.4 -9.6Z" stroke="#6600FF" fill="none" stroke-width="25"></path></g><g transform="translate(422 112)"><path d="M13.3 -15.6C15.9 -13.6 15.9 -8.2 15.7 -3.6C15.5 1 15.2 4.8 13.3 7.4C11.5 10.1 8.1 11.6 4.5 13.3C0.8 15.1 -3.1 17.2 -7.2 16.9C-11.2 16.7 -15.4 14 -18.2 10.1C-21 6.2 -22.4 1 -21 -3.2C-19.6 -7.3 -15.5 -10.5 -11.6 -12.3C-7.6 -14 -3.8 -14.4 0.7 -15.3C5.3 -16.2 10.6 -17.6 13.3 -15.6Z" stroke="#6600FF" fill="none" stroke-width="25"></path></g><g transform="translate(306 50)"><path d="M10.8 -12C14.8 -9.5 19.4 -6.9 20 -3.5C20.6 -0.2 17.1 3.8 14.5 8.4C11.9 13 10.2 18 6.9 19.5C3.6 21 -1.3 19 -5 16.4C-8.7 13.9 -11.2 10.9 -13.2 7.6C-15.2 4.2 -16.7 0.5 -17.3 -4.2C-17.9 -9 -17.6 -14.8 -14.5 -17.4C-11.5 -20 -5.7 -19.5 -1.2 -18.1C3.4 -16.7 6.8 -14.4 10.8 -12Z" stroke="#6600FF" fill="none" stroke-width="25"></path></g><g transform="translate(546 505)"><path d="M9.5 -11.6C11.9 -9.4 13 -5.9 12.7 -2.9C12.5 0.1 10.8 2.7 9.2 5C7.5 7.4 5.9 9.4 3.7 10.3C1.5 11.2 -1.2 10.9 -3.6 10C-6 9.1 -8.2 7.5 -9.3 5.4C-10.5 3.3 -10.7 0.7 -10.8 -2.4C-10.9 -5.6 -10.9 -9.3 -9.1 -11.6C-7.2 -13.9 -3.6 -14.8 0 -14.8C3.6 -14.8 7.2 -13.8 9.5 -11.6Z" stroke="#6600FF" fill="none" stroke-width="25"></path></g><g transform="translate(361 455)"><path d="M7.5 -8.8C9.3 -7.4 10.1 -4.7 11.2 -1.5C12.3 1.6 13.7 5.2 12.9 8.1C12 11.1 8.9 13.5 5.4 14.7C1.9 15.9 -2 16.1 -4.8 14.5C-7.7 13 -9.4 9.7 -11 6.5C-12.6 3.4 -14 0.3 -13.6 -2.5C-13.2 -5.3 -11 -7.9 -8.4 -9.2C-5.9 -10.5 -2.9 -10.5 0 -10.4C2.8 -10.4 5.7 -10.3 7.5 -8.8Z" stroke="#6600FF" fill="none" stroke-width="25"></path></g><g transform="translate(49 441)"><path d="M12.3 -15.1C16.2 -11.5 19.8 -7.8 19.8 -4C19.9 -0.2 16.5 3.7 13.8 7.6C11.1 11.5 9.1 15.4 5.8 17.3C2.5 19.1 -2.1 18.8 -6.1 17.1C-10 15.5 -13.3 12.6 -15.3 8.9C-17.2 5.3 -17.7 1.1 -16.6 -2.5C-15.5 -6.1 -12.8 -9 -9.7 -12.8C-6.7 -16.5 -3.3 -21.2 0.4 -21.7C4.2 -22.2 8.5 -18.7 12.3 -15.1Z" stroke="#6600FF" fill="none" stroke-width="25"></path></g><g transform="translate(653 483)"><path d="M7.3 -9.2C9.2 -7.2 10.1 -4.6 11.2 -1.5C12.3 1.5 13.5 5 12.2 7C11 9.1 7.4 9.7 4 11C0.6 12.3 -2.7 14.2 -5.4 13.7C-8.2 13.2 -10.5 10.3 -11.7 7.3C-12.8 4.2 -12.8 1 -11.9 -1.8C-11.1 -4.5 -9.3 -6.8 -7.2 -8.7C-5.1 -10.7 -2.5 -12.3 0.1 -12.4C2.7 -12.5 5.5 -11.2 7.3 -9.2Z" stroke="#6600FF" fill="none" stroke-width="25"></path></g><g transform="translate(523 160)"><path d="M12.9 -16.1C16.7 -12.2 19.9 -8.1 20.8 -3.5C21.8 1 20.6 6.1 18.6 11.9C16.6 17.6 13.8 24.1 8.9 27.1C3.9 30.1 -3.4 29.6 -9.3 26.9C-15.2 24.1 -19.7 19.1 -21.8 13.5C-23.9 8 -23.7 1.9 -22.1 -3.4C-20.5 -8.6 -17.7 -13.2 -13.8 -17.1C-9.9 -21 -4.9 -24.3 -0.2 -24.1C4.5 -23.8 9.1 -20 12.9 -16.1Z" stroke="#6600FF" fill="none" stroke-width="25"></path></g><g transform="translate(609 216)"><path d="M10.3 -12.5C12.8 -10.2 13.9 -6.4 15.5 -2C17.1 2.4 19.3 7.4 18.3 12C17.3 16.5 13.2 20.7 8.1 22.8C3 24.9 -3 24.9 -7.5 22.5C-12 20.1 -15 15.2 -17.5 10.3C-20.1 5.4 -22.3 0.6 -21.2 -3.4C-20 -7.3 -15.5 -10.2 -11.5 -12.3C-7.4 -14.4 -3.7 -15.7 0.1 -15.8C3.9 -15.9 7.8 -14.9 10.3 -12.5Z" stroke="#6600FF" fill="none" stroke-width="25"></path></g><g transform="translate(759 362)"><path d="M15.6 -17.3C20.5 -14.4 25.1 -9.8 26.6 -4.3C28.1 1.3 26.4 7.8 23.1 13.1C19.7 18.3 14.6 22.3 9 24.2C3.3 26 -3 25.7 -8.4 23.5C-13.8 21.3 -18.3 17.3 -22.8 12C-27.3 6.7 -31.7 0.2 -31.6 -6.5C-31.6 -13.2 -27.1 -20.1 -21.1 -22.8C-15.1 -25.5 -7.5 -24 -1.1 -22.7C5.3 -21.4 10.6 -20.2 15.6 -17.3Z" stroke="#6600FF" fill="none" stroke-width="25"></path></g><g transform="translate(784 56)"><path d="M3.4 -3.9C4.3 -3.3 4.7 -2.1 4.9 -0.9C5.1 0.4 5.1 1.7 4.4 2.3C3.8 3 2.4 3 1.3 3.4C0.1 3.7 -0.9 4.5 -1.8 4.4C-2.7 4.3 -3.4 3.4 -3.7 2.4C-4.1 1.4 -3.9 0.4 -3.7 -0.6C-3.4 -1.5 -3.1 -2.4 -2.4 -2.9C-1.8 -3.5 -0.9 -3.8 0.2 -4C1.3 -4.3 2.6 -4.4 3.4 -3.9Z" stroke="#6600FF" fill="none" stroke-width="25"></path></g><g transform="translate(864 357)"><path d="M11.1 -14.2C14.4 -10.6 16.9 -7 17.2 -3.3C17.5 0.3 15.5 4.1 13.3 7.6C11.2 11.2 8.9 14.6 5.1 17.4C1.3 20.3 -3.9 22.7 -8 21.4C-12.1 20.2 -15.1 15.3 -17.6 10.5C-20.2 5.6 -22.2 0.7 -22.1 -4.6C-22.1 -9.9 -20 -15.6 -15.9 -19.1C-11.9 -22.7 -6 -24 -1 -22.8C4 -21.6 7.9 -17.9 11.1 -14.2Z" stroke="#6600FF" fill="none" stroke-width="25"></path></g><g transform="translate(376 188)"><path d="M17.3 -19.1C22.4 -16.4 26.3 -10.9 26.3 -5.4C26.4 0 22.6 5.4 18.8 9.9C15.1 14.3 11.4 17.8 7 19.4C2.7 21 -2.4 20.7 -7 19.1C-11.6 17.5 -15.9 14.5 -18.4 10.5C-21 6.4 -22 1.2 -21.7 -4.4C-21.3 -9.9 -19.8 -15.8 -16 -18.7C-12.1 -21.6 -6.1 -21.4 0 -21.5C6.1 -21.5 12.3 -21.7 17.3 -19.1Z" stroke="#6600FF" fill="none" stroke-width="25"></path></g><g transform="translate(178 586)"><path d="M14 -19.1C17.5 -13.7 19.3 -8.7 20.4 -3.4C21.5 1.8 22 7.4 20.3 13.1C18.6 18.8 14.9 24.7 9.9 25.9C5 27.1 -1.1 23.5 -6.8 20.6C-12.5 17.7 -17.7 15.5 -20.3 11.5C-22.9 7.5 -22.9 1.7 -21.7 -3.6C-20.5 -8.9 -18.1 -13.8 -14.3 -19.2C-10.4 -24.5 -5.2 -30.4 0 -30.4C5.2 -30.4 10.4 -24.5 14 -19.1Z" stroke="#6600FF" fill="none" stroke-width="25"></path></g><g transform="translate(5 189)"><path d="M16.6 -19C20.3 -16.7 21.2 -10.3 21.2 -4.6C21.1 1.1 20.1 6 17.4 9.6C14.8 13.1 10.6 15.3 5.6 18.5C0.6 21.7 -5.2 25.9 -9.7 25C-14.2 24.1 -17.4 18 -19.3 12.3C-21.2 6.6 -21.8 1.3 -20.3 -2.9C-18.7 -7.1 -15 -10.2 -11.2 -12.5C-7.5 -14.7 -3.7 -16.1 1.4 -17.7C6.5 -19.3 12.9 -21.2 16.6 -19Z" stroke="#6600FF" fill="none" stroke-width="25"></path></g><g transform="translate(889 239)"><path d="M12.4 -14.8C16.6 -11.2 20.8 -7.8 22.6 -3.2C24.3 1.4 23.5 7.3 20.5 11.2C17.5 15.1 12.2 17 7.1 18.4C2 19.8 -2.9 20.6 -8.8 20.1C-14.6 19.7 -21.5 18 -23.9 13.8C-26.3 9.6 -24.3 2.8 -22.6 -3.5C-20.9 -9.8 -19.5 -15.7 -15.8 -19.4C-12.1 -23 -6 -24.4 -1 -23.2C4.1 -22.1 8.2 -18.4 12.4 -14.8Z" stroke="#6600FF" fill="none" stroke-width="25"></path></g><g transform="translate(806 555)"><path d="M7.5 -9C9.4 -7.4 10.4 -4.7 10.9 -2C11.3 0.8 11.2 3.6 9.8 5.3C8.4 7 5.7 7.7 3.2 8.4C0.7 9.1 -1.6 9.8 -3.9 9.5C-6.3 9.2 -8.7 7.8 -9.5 5.8C-10.4 3.7 -9.7 1.1 -8.7 -1C-7.6 -3 -6.3 -4.4 -4.8 -6.1C-3.3 -7.7 -1.6 -9.6 0.6 -10.4C2.8 -11.1 5.6 -10.6 7.5 -9Z" stroke="#6600FF" fill="none" stroke-width="25"></path></g><g transform="translate(797 149)"><path d="M13 -16.7C15.7 -13.2 16.1 -8 17.1 -2.9C18.1 2.2 19.7 7.3 18.1 10.7C16.4 14.1 11.4 15.9 6.7 17.1C1.9 18.3 -2.6 18.9 -5.9 17.2C-9.2 15.6 -11.4 11.7 -13.3 7.9C-15.2 4.1 -16.9 0.4 -16.6 -3.2C-16.3 -6.9 -14 -10.4 -10.9 -13.9C-7.9 -17.4 -3.9 -20.7 0.6 -21.4C5.1 -22.1 10.3 -20.2 13 -16.7Z" stroke="#6600FF" fill="none" stroke-width="25"></path></g><g transform="translate(78 7)"><path d="M4.3 -4.7C5.7 -4 7 -2.7 7.6 -1.1C8.1 0.5 7.9 2.4 6.8 3.7C5.8 5 4 5.5 2.3 6C0.6 6.6 -1.1 7 -2.8 6.8C-4.6 6.6 -6.4 5.7 -7 4.2C-7.6 2.8 -6.9 0.8 -6.4 -1C-6 -2.8 -5.6 -4.6 -4.6 -5.3C-3.5 -6.1 -1.8 -5.9 -0.1 -5.7C1.5 -5.5 3 -5.4 4.3 -4.7Z" stroke="#6600FF" fill="none" stroke-width="25"></path></g></g></svg>